<?xml version="1.0" encoding="utf-8"?>
<!-- Generator: Adobe Illustrator 23.0.2, SVG Export Plug-In . SVG Version: 6.00 Build 0)  -->
<svg version="1.1" id="Слой_1" xmlns="http://www.w3.org/2000/svg" xmlns:xlink="http://www.w3.org/1999/xlink" x="0px" y="0px"
	 viewBox="0 0 442 377.9" style="enable-background:new 0 0 442 377.9;" xml:space="preserve">
<style type="text/css">
	.st0{clip-path:url(#SVGID_2_);}
	.st1{fill:#FFFFFF;}
	.st2{clip-path:url(#SVGID_4_);}
	.st3{fill:#29540D;}
	.st4{fill:#2F5B06;}
	.st5{opacity:0.55;fill:url(#SVGID_5_);enable-background:new    ;}
	.st6{fill:url(#SVGID_6_);}
	.st7{fill:url(#SVGID_7_);}
	.st8{fill:url(#SVGID_8_);}
	.st9{fill:url(#SVGID_9_);}
	.st10{fill:url(#SVGID_10_);}
	.st11{fill:url(#SVGID_11_);}
	.st12{fill:url(#SVGID_12_);}
	.st13{fill:url(#SVGID_13_);}
	.st14{fill:url(#SVGID_14_);}
	.st15{fill:url(#SVGID_15_);}
	.st16{fill:url(#SVGID_16_);}
	.st17{fill:url(#SVGID_17_);}
	.st18{fill:url(#SVGID_18_);}
	.st19{fill:url(#SVGID_19_);}
	.st20{fill:url(#SVGID_20_);}
	.st21{opacity:0.82;fill:url(#SVGID_21_);enable-background:new    ;}
	.st22{opacity:0.82;fill:url(#SVGID_22_);enable-background:new    ;}
	.st23{fill:url(#SVGID_23_);}
	.st24{fill:url(#SVGID_24_);}
	.st25{fill:url(#SVGID_25_);}
	.st26{fill:url(#SVGID_26_);}
	.st27{fill:#260C4F;}
	.st28{fill:url(#SVGID_27_);}
	.st29{fill:url(#SVGID_28_);}
	.st30{fill:url(#SVGID_29_);}
	.st31{fill:url(#SVGID_30_);}
	.st32{opacity:0.49;fill:url(#SVGID_31_);enable-background:new    ;}
	.st33{fill:url(#SVGID_32_);}
	.st34{fill:#0C4B4F;}
	.st35{fill:#C7DC5E;}
	.st36{opacity:0.28;fill:url(#SVGID_33_);enable-background:new    ;}
	.st37{opacity:0.17;fill:url(#SVGID_34_);enable-background:new    ;}
	.st38{fill:url(#SVGID_35_);}
	.st39{fill:url(#SVGID_36_);}
	.st40{fill:url(#SVGID_37_);}
	.st41{fill:url(#SVGID_38_);}
	.st42{fill:url(#SVGID_39_);}
</style>
<title>3333</title>
<g id="OBJECTS">
	<g>
		<defs>
			<rect id="SVGID_1_" x="-158" y="-1.1" width="600" height="379"/>
		</defs>
		<clipPath id="SVGID_2_">
			<use xlink:href="#SVGID_1_"  style="overflow:visible;"/>
		</clipPath>
		<g class="st0">
			<polygon class="st1" points="0,-0.1 442,-1.1 442,377.9 0,378.9 			"/>
			<g>
				<defs>
					<path id="SVGID_3_" d="M442,378.7H164.6c-51.7,4.1-112.8-83.5-47.6-133.1c87.6-66.6,18.6-120.2-32-137.2
						C41.6,93.7,11.5,39.4,88.3-1H442V378.7z"/>
				</defs>
				<clipPath id="SVGID_4_">
					<use xlink:href="#SVGID_3_"  style="overflow:visible;"/>
				</clipPath>
				<g class="st2">
					<circle class="st3" cx="110.5" cy="287.6" r="1.7"/>
					<path class="st4" d="M96.7,304.9c0,1.1-0.9,2.1-2,2.1c-1.1,0-2.1-0.9-2.1-2l0,0l0,0c0-1.1,0.9-2.1,2-2.1
						C95.7,302.8,96.6,303.7,96.7,304.9z"/>
					
						<linearGradient id="SVGID_5_" gradientUnits="userSpaceOnUse" x1="143.3283" y1="115.2781" x2="524.3783" y2="-230.9119" gradientTransform="matrix(1 0 0 -1 -75 92)">
						<stop  offset="0" style="stop-color:#EAE46C"/>
						<stop  offset="0.84" style="stop-color:#94C133"/>
					</linearGradient>
					<path class="st5" d="M465,382.8H171.7c-54.7,4.1-119.3-84.4-50.3-134.5C214,180.9,141,126.8,87.5,109.5
						C41.6,94.7,9.8,39.9,91-1h374V382.8z"/>
					
						<linearGradient id="SVGID_6_" gradientUnits="userSpaceOnUse" x1="459.3644" y1="1904.1" x2="539.883" y2="1904.1" gradientTransform="matrix(1 0 0 1 -75 -1746.26)">
						<stop  offset="0" style="stop-color:#FFFFFF;stop-opacity:0.1"/>
						<stop  offset="1.000000e-02" style="stop-color:#FFFFFF;stop-opacity:0.12"/>
						<stop  offset="0.16" style="stop-color:#FFFFFF;stop-opacity:0.35"/>
						<stop  offset="0.32" style="stop-color:#FFFFFF;stop-opacity:0.55"/>
						<stop  offset="0.47" style="stop-color:#FFFFFF;stop-opacity:0.71"/>
						<stop  offset="0.61" style="stop-color:#FFFFFF;stop-opacity:0.84"/>
						<stop  offset="0.75" style="stop-color:#FFFFFF;stop-opacity:0.93"/>
						<stop  offset="0.89" style="stop-color:#FFFFFF;stop-opacity:0.98"/>
						<stop  offset="1" style="stop-color:#FFFFFF"/>
					</linearGradient>
					<path class="st6" d="M436.7,119.5c-15.6,0-28.2,12.6-28.2,28.2c0,1.4,0.1,2.8,0.3,4.2c-0.7-0.1-1.5-0.1-2.2-0.1
						c-12.3,0-22.2,9.9-22.2,22.2c0,12.3,9.9,22.2,22.2,22.2c12,0,21.8-9.5,22.2-21.4c15,4.4,30.6-4.2,35-19.2
						c4.4-15-4.2-30.6-19.2-35C442,119.9,439.3,119.5,436.7,119.5L436.7,119.5z"/>
					
						<linearGradient id="SVGID_7_" gradientUnits="userSpaceOnUse" x1="369.31" y1="1934.78" x2="414.47" y2="1934.78" gradientTransform="matrix(1 0 0 1 0 -1724.26)">
						<stop  offset="0" style="stop-color:#FFFFFF"/>
						<stop  offset="0.11" style="stop-color:#FFFFFF;stop-opacity:0.98"/>
						<stop  offset="0.25" style="stop-color:#FFFFFF;stop-opacity:0.93"/>
						<stop  offset="0.39" style="stop-color:#FFFFFF;stop-opacity:0.84"/>
						<stop  offset="0.53" style="stop-color:#FFFFFF;stop-opacity:0.71"/>
						<stop  offset="0.68" style="stop-color:#FFFFFF;stop-opacity:0.55"/>
						<stop  offset="0.84" style="stop-color:#FFFFFF;stop-opacity:0.35"/>
						<stop  offset="0.99" style="stop-color:#FFFFFF;stop-opacity:0.12"/>
						<stop  offset="1" style="stop-color:#FFFFFF;stop-opacity:0.1"/>
					</linearGradient>
					<circle class="st7" cx="391.9" cy="210.5" r="22.6"/>
					
						<linearGradient id="SVGID_8_" gradientUnits="userSpaceOnUse" x1="236.2774" y1="1980.916" x2="289.9374" y2="1914.556" gradientTransform="matrix(1 0 0 1 -75 -1746.26)">
						<stop  offset="0" style="stop-color:#FFFFFF"/>
						<stop  offset="0.18" style="stop-color:#FFFFFF;stop-opacity:0.82"/>
						<stop  offset="0.59" style="stop-color:#FFFFFF;stop-opacity:0.44"/>
						<stop  offset="0.87" style="stop-color:#FFFFFF;stop-opacity:0.19"/>
						<stop  offset="1" style="stop-color:#FFFFFF;stop-opacity:0.1"/>
					</linearGradient>
					<path class="st8" d="M248.1,217.1c0.1-0.7,0.1-1.3,0.1-2c0-7.9-5.4-14.7-13.1-16.5c1.9-11.9-6.3-23.1-18.2-25
						c-1.1-0.2-2.2-0.3-3.4-0.3c-1.3,0-2.6,0.1-3.8,0.3c-1-29.9-26.1-53.3-56-52.2s-53.3,26.1-52.2,56s26.1,53.3,56,52.2
						c15.6-0.5,30.1-7.8,40-19.8c4.1,4.5,10,7,16,7h0.9c0.3,2.8-3.2,5.4-1.7,7.6c-5,5.3-3.6,12.4-3.6,20.3
						c0,16.2,13.1,29.3,29.4,29.3s29.3-13.1,29.3-29.4C267.8,232.3,259.9,221.1,248.1,217.1L248.1,217.1z"/>
					
						<linearGradient id="SVGID_9_" gradientUnits="userSpaceOnUse" x1="91.57" y1="1910.04" x2="179.75" y2="1910.04" gradientTransform="matrix(1 0 0 1 0 -1724.26)">
						<stop  offset="0" style="stop-color:#FFFFFF"/>
						<stop  offset="0.11" style="stop-color:#FFFFFF;stop-opacity:0.98"/>
						<stop  offset="0.25" style="stop-color:#FFFFFF;stop-opacity:0.93"/>
						<stop  offset="0.39" style="stop-color:#FFFFFF;stop-opacity:0.84"/>
						<stop  offset="0.53" style="stop-color:#FFFFFF;stop-opacity:0.71"/>
						<stop  offset="0.68" style="stop-color:#FFFFFF;stop-opacity:0.55"/>
						<stop  offset="0.84" style="stop-color:#FFFFFF;stop-opacity:0.35"/>
						<stop  offset="0.99" style="stop-color:#FFFFFF;stop-opacity:0.12"/>
						<stop  offset="1" style="stop-color:#FFFFFF;stop-opacity:0.1"/>
					</linearGradient>
					<circle class="st9" cx="135.7" cy="185.8" r="44.1"/>
					<circle class="st1" cx="170.5" cy="217.4" r="36.5"/>
					
						<linearGradient id="SVGID_10_" gradientUnits="userSpaceOnUse" x1="175.36" y1="1952.54" x2="225" y2="1952.54" gradientTransform="matrix(1 0 0 1 0 -1724.26)">
						<stop  offset="0" style="stop-color:#FFFFFF;stop-opacity:0.1"/>
						<stop  offset="1.000000e-02" style="stop-color:#FFFFFF;stop-opacity:0.12"/>
						<stop  offset="0.16" style="stop-color:#FFFFFF;stop-opacity:0.35"/>
						<stop  offset="0.32" style="stop-color:#FFFFFF;stop-opacity:0.55"/>
						<stop  offset="0.47" style="stop-color:#FFFFFF;stop-opacity:0.71"/>
						<stop  offset="0.61" style="stop-color:#FFFFFF;stop-opacity:0.84"/>
						<stop  offset="0.75" style="stop-color:#FFFFFF;stop-opacity:0.93"/>
						<stop  offset="0.89" style="stop-color:#FFFFFF;stop-opacity:0.98"/>
						<stop  offset="1" style="stop-color:#FFFFFF"/>
					</linearGradient>
					<circle class="st10" cx="200.2" cy="228.3" r="24.8"/>
					
						<linearGradient id="SVGID_11_" gradientUnits="userSpaceOnUse" x1="237.241" y1="1967.1779" x2="427.231" y2="2056.4277" gradientTransform="matrix(1 0 0 1 -75 -1746.26)">
						<stop  offset="0" style="stop-color:#255B51"/>
						<stop  offset="1" style="stop-color:#112B27"/>
					</linearGradient>
					<path class="st11" d="M90.1,246.1c0,0,10.2-12.7,69.5-24.9c14.7-3,30.5-0.9,42.7,5.9c14.8,8.2,24.1,19.6,39.3,19
						c23.6-1,55.9-16.3,82.8-1.5s45.1,16.9,66.6-3.1s68,14.8,68,14.8l-6.3,31.6L82,290L90.1,246.1z"/>
					
						<image style="overflow:visible;opacity:0.2;enable-background:new    ;" width="167" height="76" xlink:href="B2D6F676.png"  transform="matrix(1 0 0 1 76 228.87)">
					</image>
					
						<linearGradient id="SVGID_12_" gradientUnits="userSpaceOnUse" x1="276.5602" y1="2062.7795" x2="165.7402" y2="1990.4796" gradientTransform="matrix(1 0 0 1 -75 -1746.26)">
						<stop  offset="0" style="stop-color:#2F5B06"/>
						<stop  offset="1" style="stop-color:#3A7B05"/>
					</linearGradient>
					<path class="st12" d="M118.8,233.9c0,0,77,12.7,112.1,56.4c-82,3.2-148.9,0-148.9,0v-56.4H118.8z"/>
					
						<image style="overflow:visible;opacity:0.2;enable-background:new    ;" width="191" height="97" xlink:href="B2D6F67A.png"  transform="matrix(1 0 0 1 268 242.87)">
					</image>
					
						<linearGradient id="SVGID_13_" gradientUnits="userSpaceOnUse" x1="578.2163" y1="1883.2269" x2="411.7063" y2="2081.5369" gradientTransform="matrix(1 0 0 1 -75 -1746.26)">
						<stop  offset="0" style="stop-color:#3A7B05"/>
						<stop  offset="0.31" style="stop-color:#387405"/>
						<stop  offset="0.76" style="stop-color:#316206"/>
						<stop  offset="0.89" style="stop-color:#2F5B06"/>
					</linearGradient>
					<path class="st13" d="M274,290.8c0,0,31.6-39.9,172.4-42.1c0.8,45.9,0,75.2,0,75.2S315.4,338.2,274,290.8z"/>
					
						<image style="overflow:visible;opacity:0.2;enable-background:new    ;" width="235" height="85" xlink:href="B2D6F67D.png"  transform="matrix(1 0 0 1 226 276.87)">
					</image>
					
						<linearGradient id="SVGID_14_" gradientUnits="userSpaceOnUse" x1="342.1538" y1="2080.5037" x2="290.8638" y2="2179.6638" gradientTransform="matrix(1 -9.000000e-02 9.000000e-02 1 -166.73 -1798.22)">
						<stop  offset="0.47" style="stop-color:#3A7B05"/>
						<stop  offset="0.65" style="stop-color:#397705"/>
						<stop  offset="0.85" style="stop-color:#346A06"/>
						<stop  offset="1" style="stop-color:#2F5B06"/>
					</linearGradient>
					<path class="st14" d="M232.2,285c0,0,122.3-18.5,216.8,41C404.8,337.7,283,387.7,232.2,285z"/>
					
						<linearGradient id="SVGID_15_" gradientUnits="userSpaceOnUse" x1="240.0234" y1="2046.7987" x2="321.2561" y2="2046.7987" gradientTransform="matrix(1 -2.000000e-02 2.000000e-02 1 -95.27 -1760.62)">
						<stop  offset="0" style="stop-color:#255B51"/>
						<stop  offset="1" style="stop-color:#112B27"/>
					</linearGradient>
					<path class="st15" d="M261.9,294.9c3.8-0.7,6.4-4.5,5.6-8.3c-0.6-3-3.1-5.3-6.1-5.7c-3.4-0.6-6.9,1-8.6,4
						c1.8-4,0.4-8.7-3.2-11.1c-3.7-2.4-9.5-1.4-11.8,2.2c-3.1-7.6-12.6-12.3-21.1-10.4s-14.9,10-14.1,18c0.9-1.8-0.9-3.8-2.8-4.5
						c-4.5-1.8-10.3,0.1-12.5,4.2s-0.3,9.5,3.9,11.7c2.9,1.5,6.4,1.5,9.7,1.4l27.5-0.3c11.4-0.1,22.9-0.3,34.3-1.7"/>
					
						<image style="overflow:visible;opacity:0.35;enable-background:new    ;" width="47" height="52" xlink:href="B2D6F67E.png"  transform="matrix(1 0 0 1 190 256.87)">
					</image>
					
						<linearGradient id="SVGID_16_" gradientUnits="userSpaceOnUse" x1="395.2921" y1="1829.772" x2="424.3943" y2="1829.772" gradientTransform="matrix(0.99 0.15 -0.15 0.99 80.52 -1596.11)">
						<stop  offset="0" style="stop-color:#C7DC5E"/>
						<stop  offset="1" style="stop-color:#3A7B05"/>
					</linearGradient>
					<path class="st16" d="M197.7,264c1.6-0.2,3.2-0.3,4.9-0.3c0.9,0.1,1.6,0.9,1.5,1.8c0,0,0,0,0,0c0,0,0,0,0,0.1l-0.3,3.5
						c0,0.2,0.1,0.4,0.3,0.5l0,0c0.2,0,0.4-0.1,0.5-0.3c0,0,0,0,0,0c0,0,0,0,0,0l0.7-5c0,0,2.5,1.2,4.3,2.2c0.7,0.4,1.2,1.2,1.1,2.1
						l-0.4,6.8c0,0.2,0.1,0.4,0.3,0.4l0,0c0.2,0,0.4-0.1,0.4-0.3c0,0,0-0.1,0-0.1l0.7-7.6l3.4,2.6c0.6,0.5,0.9,1.3,0.6,2l-2,7.3
						c0,0.2,0,0.4,0.2,0.5l0,0c0.2,0.1,0.4,0.1,0.5-0.1c0,0,0-0.1,0.1-0.1l2.6-8c0,0,1.3,0.2,4.2,3.7c0.8,1,0.9,2.4,0.1,3.5
						l-2.9,3.7c-0.2,0.2-0.2,0.5,0,0.7l0,0c0.1,0.2,0.4,0.2,0.6,0.1l0.1-0.1l4.1-5.3c0,0,1.9,2.8,1.1,5.2s-0.6,5.3-2.9,5.7
						c-1.5,0.2-3.1,0.3-4.7,0.2l-18-22.2L197.7,264z"/>
					
						<linearGradient id="SVGID_17_" gradientUnits="userSpaceOnUse" x1="395.0721" y1="1834.1617" x2="417.9521" y2="1834.1617" gradientTransform="matrix(0.99 0.15 -0.15 0.99 80.52 -1596.11)">
						<stop  offset="0" style="stop-color:#C7DC5E"/>
						<stop  offset="1" style="stop-color:#3A7B05"/>
					</linearGradient>
					<path class="st17" d="M216.9,289.4L197.7,264c-0.4,1.8-0.8,3.6-1,5.4c-0.1,1.1,0.5,2.2,1.5,2.7c1.3,0.5,3.1,1.3,4,1.6
						c0.2,0.1,0.4,0.3,0.4,0.5l0,0c0,0.3-0.2,0.5-0.5,0.5c0,0,0,0,0,0H202c-1.5-0.3-5.1-1.2-5.4-1.8c0,0,0.8,3.4,1.4,5.4
						c0.2,0.8,0.9,1.4,1.7,1.6c2.2,0.5,4.4,0.8,6.7,0.9c0.2,0,0.4,0.1,0.4,0.3l0,0c0.1,0.2-0.1,0.4-0.3,0.5c0,0,0,0,0,0h-0.1
						c-1.4,0-5.5-0.1-7.1-0.6c0,0,1,2.7,1.7,4.4c0.3,0.7,0.8,1.1,1.5,1.2c2.4,0.3,4.8-0.2,6.9-1.3c0.2-0.1,0.5,0,0.7,0.2l0,0
						c0.2,0.3,0.1,0.7-0.2,0.9l0,0c-1.5,0.8-5.7,2.6-8.1,1.3c0,0,4.1,8.5,8.3,8.2S215.7,297,216.9,289.4z"/>
					
						<image style="overflow:visible;opacity:0.35;enable-background:new    ;" width="52" height="64" xlink:href="B2D6F67C.png"  transform="matrix(1 0 0 1 209 249.87)">
					</image>
					
						<linearGradient id="SVGID_18_" gradientUnits="userSpaceOnUse" x1="272.9348" y1="1989.2533" x2="290.9848" y2="2007.0833" gradientTransform="matrix(1 -3.000000e-02 2.000000e-02 1.06 -93.11 -1831.0099)">
						<stop  offset="0" style="stop-color:#3A7B05"/>
						<stop  offset="0.31" style="stop-color:#387405"/>
						<stop  offset="0.76" style="stop-color:#316206"/>
						<stop  offset="0.89" style="stop-color:#2F5B06"/>
					</linearGradient>
					<path class="st18" d="M235.1,256.4L235.1,256.4c-0.3,0.2-0.5,0.3-0.8,0.5c-1,0.6-2,1.2-3,1.6c-3.1,1.5-1,10.3-0.5,12.1
						c0,0.2,0,0.4-0.1,0.5c-0.1,0.1-0.3,0.1-0.4,0c0,0,0,0-0.1-0.1c-2.2-3.8-0.9-12.2-0.9-12.2c-1.2,0.6-2.3,1.3-3.3,2.1
						c-1.4,1.1-2,2.9-1.8,4.6c0.6,4.6,3.3,9.9,3.9,11.1c0.1,0.2,0.1,0.4,0.1,0.5c-0.1,0.2-0.2,0.3-0.3,0.3c-0.1,0-0.2-0.1-0.2-0.1
						c-4.1-4.2-4.5-14.5-4.5-14.5c-0.8,0.5-2.5,3.4-3.5,5.1c-0.5,0.9-0.6,1.9-0.3,2.9c1.2,3.5,5,8.7,6.1,10.1
						c0.2,0.2,0.4,0.3,0.2,0.6c-0.1,0.2-0.3,0.3-0.5,0.3c-0.1,0-0.1,0-0.2-0.1c-4.9-3.6-6.7-11.6-6.7-11.6c-0.7,0.9-1.7,5.1-2.2,7.4
						c-0.2,1-0.1,2.1,0.3,3.1c1.8,3.8,5.8,5.7,7.3,6.3c0.3,0.1,0.4,0.5,0.2,0.7c0,0,0,0,0,0v0.1c-0.1,0.2-0.3,0.3-0.5,0.3
						c-5-0.4-7.8-6.9-7.8-6.9s-2.3,11.7,4,16.5s10.9-2.1,11.3-4.3c0-0.1,0-0.2,0-0.3v-0.1L235.1,256.4L235.1,256.4z M228.4,274.1
						c1.2-2.2,1.8,2,1.8,2C230.1,276.8,227.9,274.9,228.4,274.1z M225.6,278.2c0.2-0.5,1-0.4,1.3-0.2s1.1,1,0.9,1.5
						s-1.4,0.3-1.6,0.2C225.7,279.3,225.5,278.7,225.6,278.2L225.6,278.2z M225.2,285.2c0.2-0.5,1.6-0.2,2.1,0s1.6,1.1,1.4,1.6
						s-1.5,0.4-2.1,0.1S225.1,285.8,225.2,285.2L225.2,285.2z M226.4,294.2c-0.7,0.2-1.4-0.3-1.6-1c0,0,0-0.1,0-0.1
						c0-0.8,0.5-1.6,1.3-1.8c0.6-0.2,2-0.1,2.1,0.7S227,294.1,226.4,294.2L226.4,294.2z M230.6,282.9c-0.3,0.2-0.9-0.3-1-0.6
						s-0.3-1.3-0.1-1.5s0.8,0.4,1,0.7S230.9,282.7,230.6,282.9L230.6,282.9z M232.2,273.4c-0.1,0.3-0.3,0.9-0.6,0.8
						s-0.3-0.8-0.2-1.1s0.4-0.9,0.6-0.8S232.3,273.1,232.2,273.4L232.2,273.4z M232.9,269c-0.4,0.5-1.4-3.2-0.7-3.3
						C233.5,265.6,232.9,269.1,232.9,269L232.9,269z"/>
					
						<linearGradient id="SVGID_19_" gradientUnits="userSpaceOnUse" x1="735.6921" y1="1405.0154" x2="771.0021" y2="1424.3555" gradientTransform="matrix(0.79 0.44 -0.39 1.05 192.47 -1539.8899)">
						<stop  offset="0" style="stop-color:#3A7B05"/>
						<stop  offset="0.31" style="stop-color:#387405"/>
						<stop  offset="0.76" style="stop-color:#316206"/>
						<stop  offset="0.89" style="stop-color:#2F5B06"/>
					</linearGradient>
					<path class="st19" d="M241.1,292.7c-0.3,0-0.5-0.3-0.5-0.6l0,0c-0.1-0.4,0.2-0.8,0.6-0.9c8.7-1,7.7-9.5,7.7-9.5
						c-2.2,3.1-8.3,4.6-9.8,5c-0.2,0-0.4-0.1-0.4-0.4c0-0.2,0.1-0.5,0.3-0.5c4.8-0.9,9.8-6.2,9.8-6.2c0.5-4-1.8-9.7-1.8-9.7
						c-3.4,7.6-8.1,9.7-9.2,10c-0.1,0-0.3,0-0.4-0.2c-0.1-0.2,0-0.5,0.2-0.6c0,0,0,0,0,0c5.3-1.7,8.5-11,8.5-11
						c-0.2-2.1-3.8-5.4-3.8-5.4c-0.4,4-2.1,7.8-4.8,10.9c-0.1,0.1-0.3,0.1-0.4,0c0,0-0.1-0.1-0.1-0.1c-0.1-0.2,0-0.4,0.1-0.6
						c3.4-3.4,4.1-11,4.1-11c-0.4-1.2-1.4-1.2-2.7-2.2c-1.2-1-2.3-2-3.4-3.1h0l-4.2,36.9l0,0c0,0.4,0.2,9.3,8.9,7.3
						c6.9-1.6,8.3-11.8,8.3-11.8C245.3,292.6,242.2,292.8,241.1,292.7z M237.9,275.4c0.2-0.1,0.8-0.2,0.9,0s-0.3,0.7-0.5,0.9
						s-0.8,0.3-0.9,0S237.6,275.6,237.9,275.4z M236.3,269.4c0.8,0.4-1.4,2.2-1.7,1.7C234.5,271.2,234.8,268.7,236.3,269.4
						L236.3,269.4z M233.5,278.6c0.5-0.9,1.1-1.7,1.5-0.3c0.1,0.5-0.4,1-0.9,1.2S233.2,279.1,233.5,278.6L233.5,278.6z M233.2,284.6
						c-0.1-0.4,0.6-0.8,0.9-0.9c0.3-0.1,0.6,0,0.7,0.3c0,0,0,0.1,0,0.1c0.1,0.4-0.1,0.7-0.5,0.9C234,285,233.3,285,233.2,284.6
						L233.2,284.6z M236.1,293.8c-0.3,0.6-1,0.9-1.6,0.6h-0.1c-0.5-0.3-1.5-1.5-1.2-2.3s1.5-0.5,2-0.2
						C235.9,292.4,236.2,293.1,236.1,293.8L236.1,293.8z M236,289.1c-0.4,0.3-1.5,0.4-1.7-0.2s0.6-1.5,1-1.7s1.5-0.6,1.7,0
						S236.4,288.8,236,289.1L236,289.1z M237.7,282.6c-0.2,0-0.8,0-0.9-0.3s0.5-0.6,0.7-0.7s0.6,0,0.6,0.3
						C238.2,282.2,238,282.5,237.7,282.6L237.7,282.6z"/>
					
						<image style="overflow:visible;opacity:0.2;enable-background:new    ;" width="429" height="116" xlink:href="B2D6F67B.png"  transform="matrix(1 0 0 1 42 274.87)">
					</image>
					
						<linearGradient id="SVGID_20_" gradientUnits="userSpaceOnUse" x1="178.6998" y1="1988.4602" x2="419.0498" y2="2147.5703" gradientTransform="matrix(1 0 0 1 -75 -1746.26)">
						<stop  offset="0" style="stop-color:#EAE46C"/>
						<stop  offset="3.000000e-02" style="stop-color:#DCDE63"/>
						<stop  offset="0.11" style="stop-color:#BDD24E"/>
						<stop  offset="0.19" style="stop-color:#A6C83F"/>
						<stop  offset="0.26" style="stop-color:#99C336"/>
						<stop  offset="0.32" style="stop-color:#94C133"/>
					</linearGradient>
					<path class="st20" d="M75.2,290.4c0,0,126.4-28.3,207.7,11.3S459,322.9,459,322.9v55H75.2C75.2,377.9,15,333.1,75.2,290.4z"/>
					
						<linearGradient id="SVGID_21_" gradientUnits="userSpaceOnUse" x1="281.765" y1="1817.4938" x2="281.765" y2="1855.13" gradientTransform="matrix(1 0 0 1 -75 -1746.26)">
						<stop  offset="0" style="stop-color:#FFFFFF"/>
						<stop  offset="0.11" style="stop-color:#FFFFFF;stop-opacity:0.98"/>
						<stop  offset="0.25" style="stop-color:#FFFFFF;stop-opacity:0.93"/>
						<stop  offset="0.39" style="stop-color:#FFFFFF;stop-opacity:0.84"/>
						<stop  offset="0.53" style="stop-color:#FFFFFF;stop-opacity:0.71"/>
						<stop  offset="0.68" style="stop-color:#FFFFFF;stop-opacity:0.55"/>
						<stop  offset="0.84" style="stop-color:#FFFFFF;stop-opacity:0.35"/>
						<stop  offset="0.99" style="stop-color:#FFFFFF;stop-opacity:0.12"/>
						<stop  offset="1" style="stop-color:#FFFFFF;stop-opacity:0.1"/>
					</linearGradient>
					<path class="st21" d="M269.1,108.9c-3.2-9.7-14.3-16.9-27.6-16.9c-3.2,0-6.5,0.4-9.6,1.3c-4.5-16-21.1-25.4-37.1-20.9
						c-8.6,2.4-15.7,8.5-19.3,16.6c-13.6-3.4-27.4,4.9-30.8,18.5c0,0,0,0,0,0c-0.1,0.5-0.2,0.9-0.3,1.4L269.1,108.9z"/>
					
						<linearGradient id="SVGID_22_" gradientUnits="userSpaceOnUse" x1="147.25" y1="1770.5034" x2="147.25" y2="1792.13" gradientTransform="matrix(1 0 0 1 -75 -1746.26)">
						<stop  offset="0" style="stop-color:#FFFFFF"/>
						<stop  offset="0.11" style="stop-color:#FFFFFF;stop-opacity:0.98"/>
						<stop  offset="0.25" style="stop-color:#FFFFFF;stop-opacity:0.93"/>
						<stop  offset="0.39" style="stop-color:#FFFFFF;stop-opacity:0.84"/>
						<stop  offset="0.53" style="stop-color:#FFFFFF;stop-opacity:0.71"/>
						<stop  offset="0.68" style="stop-color:#FFFFFF;stop-opacity:0.55"/>
						<stop  offset="0.84" style="stop-color:#FFFFFF;stop-opacity:0.35"/>
						<stop  offset="0.99" style="stop-color:#FFFFFF;stop-opacity:0.12"/>
						<stop  offset="1" style="stop-color:#FFFFFF;stop-opacity:0.1"/>
					</linearGradient>
					<path class="st22" d="M108.1,45.9c-1.8-5.6-8.3-9.7-15.9-9.7c-1.9,0-3.7,0.2-5.5,0.8c-2.6-9.2-12.1-14.6-21.3-12
						c-4.9,1.4-9,4.9-11.1,9.5c-7.8-1.9-15.8,2.8-17.7,10.7c-0.1,0.3-0.1,0.5-0.2,0.8L108.1,45.9z"/>
					
						<linearGradient id="SVGID_23_" gradientUnits="userSpaceOnUse" x1="141.1605" y1="2096.4695" x2="721.7576" y2="1515.8724" gradientTransform="matrix(1 0 0 1 0 -1724.26)">
						<stop  offset="0" style="stop-color:#FFFFFF;stop-opacity:0"/>
						<stop  offset="9.000000e-02" style="stop-color:#FFFFFF;stop-opacity:5.000000e-02"/>
						<stop  offset="0.25" style="stop-color:#FFFFFF;stop-opacity:0.17"/>
						<stop  offset="0.45" style="stop-color:#FFFFFF;stop-opacity:0.37"/>
						<stop  offset="0.71" style="stop-color:#FFFFFF;stop-opacity:0.64"/>
						<stop  offset="0.85" style="stop-color:#FFFFFF;stop-opacity:0.81"/>
						<stop  offset="1" style="stop-color:#FFFFFF"/>
					</linearGradient>
					<polygon class="st23" points="443,26 449.3,38.2 179,420.9 8,418.9 					"/>
					
						<linearGradient id="SVGID_24_" gradientUnits="userSpaceOnUse" x1="268.9027" y1="1892.5725" x2="764.8478" y2="1396.6403" gradientTransform="matrix(1 9.000000e-02 -9.000000e-02 1 9.61 -1672.29)">
						<stop  offset="0" style="stop-color:#FFFFFF;stop-opacity:0"/>
						<stop  offset="9.000000e-02" style="stop-color:#FFFFFF;stop-opacity:4.000000e-02"/>
						<stop  offset="0.23" style="stop-color:#FFFFFF;stop-opacity:0.15"/>
						<stop  offset="0.43" style="stop-color:#FFFFFF;stop-opacity:0.33"/>
						<stop  offset="0.66" style="stop-color:#FFFFFF;stop-opacity:0.58"/>
						<stop  offset="0.91" style="stop-color:#FFFFFF;stop-opacity:0.89"/>
						<stop  offset="1" style="stop-color:#FFFFFF"/>
					</linearGradient>
					<polygon class="st24" points="437,-1 446,12 -25.8,396.5 -122.7,387.7 300,70.9 					"/>
					
						<linearGradient id="SVGID_25_" gradientUnits="userSpaceOnUse" x1="394.5834" y1="2108.5798" x2="427.4634" y2="2108.5798" gradientTransform="matrix(1 -2.000000e-02 2.000000e-02 1 -95.18 -1757.51)">
						<stop  offset="0" style="stop-color:#41837E"/>
						<stop  offset="0.21" style="stop-color:#2F5D70"/>
						<stop  offset="0.43" style="stop-color:#203C64"/>
						<stop  offset="0.64" style="stop-color:#15245B"/>
						<stop  offset="0.83" style="stop-color:#0E1656"/>
						<stop  offset="1" style="stop-color:#0C1154"/>
					</linearGradient>
					<path class="st25" d="M343.4,373L343.4,373c0.2,0,0.2-0.1,0.2-0.2c-0.4-5.6,1.2-12.5,4.5-20.4l0.1-0.1h0.1l2.4-0.3
						c4-0.4,8-1,11.9-1.8c0.1,0,0.2-0.1,0.1-0.2c0-0.1-0.1-0.1-0.1-0.1h-0.1c-3.9,0.8-7.9,1.4-11.9,1.8l-2,0.2h-0.4l0.2-0.4
						c2.7-5.9,5.8-11.6,9.3-17.1v-0.1h0.1c1.8-0.5,3.9-1,6.2-1.6l2.8-0.7c0,0,0.1,0,0.1-0.1c0,0,0-0.1,0-0.1c0-0.1-0.1-0.1-0.1-0.1
						h-0.1l-2.8,0.7c-1.8,0.4-3.7,0.9-5.3,1.3l-0.6,0.2l0.4-0.6c4.6-7.1,9.6-13.9,15-20.3c0,0,0-0.1,0-0.1c0,0,0-0.1,0-0.1h-0.1
						c-0.1,0-0.1,0-0.2,0c-5.6,6.7-10.8,13.8-15.5,21.1c-0.8,1.3-1.7,2.6-2.5,4l-0.3,0.5l-0.1-0.6c-0.6-3-2.2-10.5-2.4-11.3
						c0-0.1-0.1-0.1-0.1-0.1h-0.1c0,0-0.1,0-0.1,0.1c0,0,0,0.1,0,0.1c0.3,1.1,2.3,10.5,2.5,12.1v0.1l-0.1,0.1
						c-2.8,4.6-5.2,9.5-7.3,14.5l-0.2,0.5l-0.2-0.4c-2.2-4.2-4-8.6-5.3-13.2c0,0-0.1-0.1-0.1-0.1h-0.1c-0.1,0-0.1,0.1-0.1,0.2
						c1.3,4.8,3.2,9.4,5.5,13.8l0.1,0.1v0.2c-2.8,7-4,13.2-3.7,18.4C343.3,372.9,343.4,373,343.4,373z"/>
					
						<linearGradient id="SVGID_26_" gradientUnits="userSpaceOnUse" x1="442.3331" y1="2106.4058" x2="556.9631" y2="2106.4058" gradientTransform="matrix(1 0 0 1 -75 -1746.26)">
						<stop  offset="0" style="stop-color:#255B51"/>
						<stop  offset="1" style="stop-color:#112B27"/>
					</linearGradient>
					<path class="st26" d="M375.6,383.1c-5.9-1.5-9.4-7.5-7.9-13.4c1.5-5.9,7.5-9.4,13.4-7.9c3.1,0.8,5.7,2.9,7.1,5.7
						c-2.6-5.8-1-13.4,4.2-17.1s13.4-2.5,16.6,3c4.1-11.6,17.5-19.1,29.5-16.6s21.3,14.8,20.4,27c-1.3-2.7,1.1-5.8,3.8-7
						c6.9-3,14.9,0.1,17.9,7c2.7,6.2,0.5,13.4-5.3,17c-4,2.4-9,2.5-13.7,2.5l-38.8,0.4c-16.2,0.2-32.3,0.3-48.4-1.4"/>
					<path class="st27" d="M391.4,333.7c11.5,10.4,19.5,24.2,22.7,39.4l0.2-1.5c0.4-5.1,1.1-10.2,1.9-15.2
						c-14.1-16.7-16.8-38.9-16.8-38.9c9,10.3,15,22.9,17.2,36.4c0.6-3.5,1.3-7.1,2-10.6c0.2-0.8,0.4-1.7,0.5-2.5
						c-10.9-16.4-11.6-36-11.6-36c6.9,10.1,11.1,21.8,12,34c0.2-0.8,0.4-1.6,0.6-2.4l0,0v-0.1c0.8-3.5,1.8-6.9,2.8-10.2
						c-10.1-15.2-10.8-33.4-10.8-33.4c6.6,9.6,10.5,20.8,11.2,32.4c0.9-2.9,1.8-5.8,2.8-8.7c0.5-1.5,1.1-3,1.6-4.5
						c-2.8-7.6-3.8-15.7-3-23.8c3,7.2,4.1,15,3.4,22.7c1.9-5.1,4.1-10.2,6.5-15.1c1.9-8.6,6.1-16.4,12.1-22.8
						c0,0-2.5,14.6-12.3,25.2c-1.5,3.1-2.8,6.3-4.1,9.6c4-5.3,10.1-8.6,16.8-9c0,0-6.6,8.8-17,9.6c-1.1,2.8-2.1,5.6-3.1,8.5
						c-0.6,1.8-1.2,3.5-1.7,5.3c5.2-6.9,13.2-11.1,21.8-11.6c0,0-8.6,11.5-22.1,12.5c-1.1,3.6-2.2,7.3-3.1,11
						c6.5-7.9,16-12.7,26.2-13.3c0,0-10.3,13.9-26.7,15.5c-0.6,2.4-1.1,4.9-1.6,7.3c-0.6,2.9-1.1,5.8-1.7,8.7
						c6.7-11.1,17.7-18.9,30.4-21.6c0,0-11.2,18.3-30.5,22.6c-1,6-1.8,12.1-2.3,18.3v0.4c2.7-5.3,11.7-20.7,30.8-27.8
						c0,0-10.5,21.3-30.9,29.4l-0.1,1.5c0,0.6-0.1,1.2-0.2,1.8l-0.1,1.8l-0.3,7.1c-0.2,2.4-0.1,4.7-0.1,7.1v7.1l-1.4,0.1v-7.1
						c0-2.4,0-4.8,0.2-7.2l0.4-7.2l0.1-1.8c0-0.6,0.1-1.2,0.2-1.8v-0.5C396.4,358.5,391.4,333.7,391.4,333.7z"/>
					<path class="st27" d="M310.1,341.5c-3,10.7-2.6,22,1.2,32.4l-0.7-0.9c-2.2-2.9-4.5-5.7-6.9-8.4c2.2-15.4-4.6-29.8-4.6-29.8
						c-1.6,9.6-0.4,19.5,3.5,28.5c-1.7-1.9-3.4-3.8-5.2-5.6l-1.3-1.3c0.3-14-6.6-26.1-6.6-26.1c-0.4,8.7,1.5,17.3,5.6,25l-1.2-1.2
						h-0.1c-1.8-1.8-3.7-3.5-5.5-5.1c0.4-13-6.1-24.3-6.1-24.3c-0.4,8.3,1.5,16.5,5.5,23.8c-1.6-1.4-3.3-2.8-5-4.2
						c-0.9-0.7-1.8-1.4-2.7-2.1c-1.2-5.6-3.7-10.9-7.2-15.4c0.9,5.5,3.2,10.6,6.6,15c-3.1-2.4-6.3-4.6-9.6-6.6
						c-4.4-4.4-9.9-7.6-15.9-9.1c0,0,7,7.9,17,10.5c2.1,1.3,4.1,2.7,6.1,4.2c-4.4-1.7-9.3-1.3-13.5,0.9c0,0,7.3,2.8,13.9-0.6
						c1.7,1.3,3.4,2.6,5.1,4c1,0.8,2,1.7,3,2.5c-5.7-2.2-12.2-1.7-17.5,1.2c0,0,9.5,3.7,18-0.8c2,1.8,4.1,3.6,6,5.5
						c-6.9-2.3-14.5-1.6-20.8,1.9c0,0,11.5,4.4,22-0.8c1.3,1.2,2.5,2.5,3.8,3.8c1.4,1.5,2.9,3.1,4.3,4.6c-8.2-4.1-17.8-4.7-26.5-1.5
						c0,0,13.6,6.8,27,2c2.9,3.3,5.7,6.6,8.3,10.1l0.2,0.2c-8.7-5.2-19-7.1-29-5.1c0,0,14.4,8.9,29.8,6l0.7,0.9l0.8,1l0.7,1l2.9,4.1
						c1,1.4,1.9,2.8,2.8,4.2l2.7,4.3l0.9-0.5l-2.8-4.3c-0.9-1.4-1.8-2.9-2.8-4.3l-2.9-4.2l-0.7-1c-0.3-0.4-0.5-0.7-0.8-1l-0.2-0.3
						C316.5,358.3,310.1,341.5,310.1,341.5z"/>
					
						<linearGradient id="SVGID_27_" gradientUnits="userSpaceOnUse" x1="461.4286" y1="2098.3367" x2="506.57" y2="2098.3367" gradientTransform="matrix(1 0 0 1 -75 -1746.26)">
						<stop  offset="0" style="stop-color:#0E4F24"/>
						<stop  offset="0.24" style="stop-color:#20653F"/>
						<stop  offset="0.54" style="stop-color:#337C5B"/>
						<stop  offset="0.8" style="stop-color:#3F8A6C"/>
						<stop  offset="1" style="stop-color:#438F72"/>
					</linearGradient>
					<path class="st28" d="M431.5,317.7L431.5,317.7c-0.5,0.2-1,0.4-1.6,0.6c-1.9,0.7-3.9,1.3-5.9,1.7c-6,1.4-4.9,16.9-4.6,20.2
						c0,0.3-0.1,0.7-0.4,0.8c-0.3,0.2-0.6,0.1-0.7-0.2c0,0,0,0,0,0c0,0,0-0.1,0-0.1c-2.8-7.2,2-20.8,2-20.8
						c-0.8-0.1-3.9,1.2-6.5,2.4c-2.7,1.4-4.5,4.1-4.5,7.2c-0.2,7.9,2.8,17.8,3.5,20c0.1,0.3,0.1,0.7,0,1c-0.2,0.3-0.4,0.4-0.6,0.4
						c-0.2-0.1-0.3-0.2-0.4-0.3c-5.9-8.5-3.7-25.9-3.7-25.9c-1.5,0.5-5.5,4.9-7.8,7.4c-1.1,1.3-1.7,3-1.4,4.7
						c1,6.4,6.1,16.4,7.7,19.1c0.3,0.4,0.6,0.7,0.2,1.1c-0.2,0.3-0.6,0.4-1,0.4c-0.1,0-0.2-0.1-0.3-0.1c-7.6-7.7-8.3-21.9-8.3-21.9
						c-1.5,1.2-4.6,8-6.1,11.6c-0.7,1.7-0.9,3.5-0.4,5.3c2.1,7,8.5,11.5,11,13.1c0.4,0.3,0.5,0.8,0.2,1.2c0,0,0,0,0,0
						c0,0-0.1,0.1-0.1,0.1c-0.2,0.3-0.7,0.5-1.1,0.4c-8.7-2.4-11.7-14.2-11.7-14.2s-7.7,18.8,2.1,29.1s20,0.1,21.3-3.4
						c0-0.1,0.1-0.3,0.2-0.4l0.1-0.2L431.5,317.7L431.5,317.7z M414.2,344.9c2.8-3.3,2.6,4,2.6,4
						C416.4,350.1,413.1,346.2,414.2,344.9z M408.1,350.9c0.5-0.8,1.8-0.3,2.3,0.1s1.7,2.1,1.2,2.9s-2.5,0.1-3-0.3
						C407.8,352.9,407.7,351.8,408.1,350.9L408.1,350.9z M405.2,362.7c0.5-0.9,2.8,0.2,3.7,0.8s2.5,2.4,2,3.2s-2.8,0.1-3.7-0.5
						S404.7,363.5,405.2,362.7L405.2,362.7z M404.5,378.3c-1.4,0-2.5-1-2.6-2.4c0,0,0,0,0,0l0,0c0-1.5,1.7-2.5,2.8-2.6
						s3.6,0.5,3.5,2S405.6,378.2,404.5,378.3L404.5,378.3z M415.5,360.6c-0.5,0.3-1.4-0.8-1.6-1.4s-0.2-2.2,0.3-2.5s1.3,1,1.5,1.6
						S416.1,360.3,415.5,360.6L415.5,360.6z M421.2,345.2c-0.2,0.5-0.9,1.4-1.3,1.2s-0.2-1.4,0-1.9s1-1.4,1.4-1.2
						S421.4,344.7,421.2,345.2L421.2,345.2z M423.6,338.1c-0.9,0.7-1.6-5.8-0.2-5.7C425.8,332.5,423.7,338.1,423.6,338.1
						L423.6,338.1z"/>
					
						<linearGradient id="SVGID_28_" gradientUnits="userSpaceOnUse" x1="487.6168" y1="2101.8503" x2="524.4348" y2="2101.8503" gradientTransform="matrix(1 0 0 1 -75 -1746.26)">
						<stop  offset="0" style="stop-color:#0E4F24"/>
						<stop  offset="0.24" style="stop-color:#20653F"/>
						<stop  offset="0.54" style="stop-color:#337C5B"/>
						<stop  offset="0.8" style="stop-color:#3F8A6C"/>
						<stop  offset="1" style="stop-color:#438F72"/>
					</linearGradient>
					<path class="st29" d="M431,380.6c-0.5-0.2-0.8-0.7-0.7-1.2l0,0c0-0.7,0.6-1.3,1.3-1.4c15.7,1.3,16.6-13.3,16.6-13.3
						c-4.8,4.5-16.1,4.9-18.9,5c-0.4,0-0.6-0.3-0.6-0.7c0,0,0,0,0,0c0,0,0,0,0-0.1c0-0.4,0.3-0.7,0.7-0.8c8.7,0.1,19.2-7,19.2-7
						c2.1-6.6-0.3-17-0.3-17c-8.2,11.5-17.3,13.4-19.3,13.7c-0.3,0-0.5-0.1-0.6-0.4c-0.1-0.4,0.1-0.9,0.5-1c0,0,0,0,0,0l0,0
						c9.8-1,18.3-15.5,18.3-15.5c0.2-3.6-5.1-10.5-5.1-10.5c-2,6.7-6.1,12.5-11.8,16.6c-0.2,0.2-0.5,0.1-0.7-0.1c0,0,0,0,0,0
						c0-0.1-0.1-0.1-0.1-0.2c-0.1-0.3,0-0.7,0.3-0.9c7.1-4.6,10.7-17.1,10.7-17.1c-0.3-2.1-2.1-2.6-4.1-4.7c-1.8-2-3.4-4.2-5-6.4
						v-0.1h-0.1l-18.6,60.5l0,0c-0.1,0.7-2.5,15.7,13.5,15.3c12.7-0.4,18.3-16.9,18.3-16.9C438.5,382,433,381.1,431,380.6z
						 M430.5,350.5c0.4-0.1,1.5-0.1,1.5,0.4s-0.8,1.1-1.2,1.2s-1.5,0.3-1.6-0.2S430.1,350.7,430.5,350.5L430.5,350.5z M429.5,339.8
						c1.4,1-3.1,3.3-3.6,2.3C426,342.2,427.2,338.2,429.5,339.8L429.5,339.8z M421.9,354.4c1-1.3,2.5-2.5,2.8,0c0.1,0.8-1,1.5-2,1.8
						S421.3,355.1,421.9,354.4L421.9,354.4z M419.5,364.3c0-0.7,1.2-1.2,1.8-1.3c0.5-0.1,1.1,0.3,1.2,0.8c0,0,0,0,0,0
						c0,0,0,0.1,0,0.1c0,0.7-0.5,1.2-1.1,1.3C420.8,365.3,419.5,364.9,419.5,364.3L419.5,364.3z M421.8,380.8
						c-0.7,1-2.1,1.2-3.1,0.4l0,0c-0.8-0.7-2.1-3.1-1.4-4.2s2.8-0.2,3.6,0.4S422.6,379.7,421.8,380.8L421.8,380.8z M423.1,372.8
						c-0.8,0.3-2.8,0.2-3-0.9s1.5-2.3,2.3-2.6s2.9-0.5,3.1,0.6S424,372.4,423.1,372.8L423.1,372.8z M428.1,362.6
						c-0.3,0-1.4-0.3-1.4-0.8s1.1-0.9,1.4-0.9s1.1,0.1,1,0.7C429,362,428.6,362.4,428.1,362.6L428.1,362.6z"/>
					
						<linearGradient id="SVGID_29_" gradientUnits="userSpaceOnUse" x1="351.9641" y1="2083.0264" x2="405.0141" y2="2134.5464" gradientTransform="matrix(1 0 0 1 -75 -1746.26)">
						<stop  offset="0" style="stop-color:#255B51"/>
						<stop  offset="1" style="stop-color:#112B27"/>
					</linearGradient>
					<path class="st30" d="M260.6,389c-6.6-1.7-10.6-8.5-8.9-15.1s8.5-10.6,15.1-8.9c3.4,0.9,6.3,3.2,7.9,6.4
						c-2.9-6.5-1.1-15,4.7-19.2s15-2.8,18.7,3.4c4.6-13.1,19.6-21.5,33.2-18.7s24,16.6,23,30.4c-1.5-3,1.3-6.5,4.3-7.9
						c7-3.3,16.4-0.1,20,6.7s0.9,16.4-5.8,20.3c-4.5,2.7-10.1,2.8-15.4,2.8l-43.7,0.5c-18.2,0.2-36.4,0.4-54.5-1.6"/>
					
						<image style="overflow:visible;opacity:0.35;enable-background:new    ;" width="65" height="82" xlink:href="B2D6F675.png"  transform="matrix(1 0 0 1 326 305.87)">
					</image>
					
						<linearGradient id="SVGID_30_" gradientUnits="userSpaceOnUse" x1="385.0133" y1="2126.9805" x2="436.9133" y2="2097.0205" gradientTransform="matrix(1 -2.000000e-02 2.000000e-02 1 -95.18 -1757.51)">
						<stop  offset="0" style="stop-color:#255B51"/>
						<stop  offset="0.8" style="stop-color:#3A7B05"/>
					</linearGradient>
					<path class="st31" d="M342.8,372.8c0.5,0.3,14.6,5.4,18.4,0.4l-9.6-2.4c0,0,11.4,1.8,13.6-1s9.5-12.5,9.5-12.5s-9.3,0-10.4-0.5
						c0,0,8.2-0.3,11.1-6s3-14.6,3-14.6l-7,2.6c0,0,5.4-2.9,4.8-6.5s-3.8-18-2.9-19.5s-9.3,1.4-12.7,4.6s0,9,0,9s-5.2-4.3-6.3-6.3
						s-7.7,5.9-8.1,6.4s0.4,12.5,1.4,13.9s-5.9-6-6-8s-5.5,6.7-5,10.7s3.6,11.8,3.6,11.8s-5.1-2.5-6-5.6S327.5,362.6,342.8,372.8z"
						/>
					
						<linearGradient id="SVGID_31_" gradientUnits="userSpaceOnUse" x1="382.4709" y1="2123.0168" x2="434.241" y2="2093.1267" gradientTransform="matrix(1 -2.000000e-02 2.000000e-02 1 -95.18 -1757.51)">
						<stop  offset="0" style="stop-color:#255B51"/>
						<stop  offset="0.8" style="stop-color:#3A7B05"/>
					</linearGradient>
					<path class="st32" d="M334,349.3c0.9,3.1,6,5.6,6,5.6s-2.9-7.8-3.5-11.8s4.9-12.7,5-10.7s6.9,9.4,5.9,8s-1.8-13.5-1.4-13.9
						s7-8.3,8.1-6.4c1.1,2,6.3,6.3,6.3,6.3s-3.3-5.8,0-9c2.9-2.8,11-5.3,12.5-4.9l0.2,0.4c0,0-32.5,40-29.5,60.4
						c-0.4-0.1-0.8-0.3-1.2-0.5C327.3,362.6,333.1,346.3,334,349.3z"/>
					<path class="st27" d="M331.2,295.7c8.2,7,13.9,16.3,16.5,26.8l0.1-1c0.2-3.5,0.6-7,1-10.5c-10-11.2-12.3-26.5-12.3-26.5
						c6.5,6.9,10.8,15.5,12.6,24.8c0.4-2.5,0.8-4.9,1.2-7.3c0.1-0.6,0.2-1.1,0.3-1.7c-7.8-11.1-8.7-24.6-8.7-24.6
						c5,6.8,8.1,14.8,9,23.2l0.3-1.6l0,0v-0.1c0.5-2.4,1.1-4.8,1.7-7.1c-7.3-10.3-8.1-22.9-8.1-22.9c4.8,6.5,7.7,14.2,8.4,22.2
						c0.5-2,1.1-4,1.8-6c0.3-1,0.7-2.1,1-3.1c-2.1-5.2-2.9-10.8-2.5-16.4c2.2,4.9,3.1,10.3,2.8,15.6c1.2-3.6,2.6-7.1,4.2-10.6
						c1.1-6,3.9-11.5,7.9-16c0,0-1.4,10.1-8,17.6c-1,2.2-1.8,4.4-2.7,6.7c2.7-3.7,6.8-6.1,11.4-6.5c0,0-4.4,6.2-11.5,7
						c-0.7,2-1.4,3.9-2,5.9c-0.4,1.2-0.7,2.4-1.1,3.7c3.5-4.8,8.9-7.9,14.8-8.4c0,0-5.7,8.1-15,9.1c-0.7,2.5-1.4,5.1-1.9,7.7
						c4.3-5.6,10.8-9.1,17.8-9.7c0,0-6.9,9.8-18.2,11.2c-0.4,1.7-0.7,3.4-1,5.1c-0.4,2-0.7,4-1,6c4.4-7.8,11.9-13.4,20.6-15.5
						c0,0-7.4,12.8-20.6,16.2c-0.6,4.2-1,8.4-1.3,12.7v0.3c4.2-8.9,11.6-16,20.7-19.8c0,0-6.9,14.9-20.8,20.9l-0.1,1
						c0,0.4-0.1,0.8-0.1,1.2v1.2l-0.1,4.9c-0.1,1.6,0,3.3,0.1,4.9l0.1,4.9l-1,0.1l-0.1-5c0-1.6-0.1-3.3,0-5l0.1-5V325
						c0-0.4,0-0.8,0.1-1.2v-0.3C335.1,312.7,331.2,295.7,331.2,295.7z"/>
					
						<image style="overflow:visible;opacity:0.64;enable-background:new    ;" width="82" height="123" xlink:href="B2D6F677.png"  transform="matrix(1 0 0 1 291 290.87)">
					</image>
					
						<linearGradient id="SVGID_32_" gradientUnits="userSpaceOnUse" x1="353.2699" y1="2097.2234" x2="431.6999" y2="2145.6733" gradientTransform="matrix(1 -2.000000e-02 2.000000e-02 1 -95.18 -1757.51)">
						<stop  offset="0" style="stop-color:#C7DC5E"/>
						<stop  offset="0.12" style="stop-color:#B0CC50"/>
						<stop  offset="0.41" style="stop-color:#7EAA30"/>
						<stop  offset="0.66" style="stop-color:#599018"/>
						<stop  offset="0.87" style="stop-color:#42810A"/>
						<stop  offset="1" style="stop-color:#3A7B05"/>
					</linearGradient>
					<path class="st33" d="M308.2,369.9c-3.1-3.7-6.6-7.2-8.9-11.5s-3-9.8-0.4-13.9s9.2-5.6,12.4-1.9c1.3,1.5,2.5,3.8,4.4,3.3
						s1.9-3,1.2-4.7c-1.2-2.8-3.4-5-5.4-7.3s-3.8-4.9-4-8s2.1-6.3,5.1-6.3c1.1,0,2.3,0.5,3.4,0.3c1.9-0.4,2.8-2.6,2.6-4.5
						s-1-3.6-1.5-5.5c-1.4-6.5,4.7-13.5,11.4-12.9s11.5,8.5,9,14.7c-0.8,1.9-2.1,3.6-2.5,5.6s0.5,4.6,2.5,4.9s3.6-1.9,5.5-2.7
						c3.2-1.4,7,1.3,7.9,4.7s-0.5,6.9-2.4,9.9s-4.2,5.6-5.7,8.7c-0.5,1.1-0.9,2.5-0.1,3.4c1.3,1.5,3.6-0.1,5.3-1
						c4.2-2,9.5,1.2,11.1,5.6s0.3,9.3-1.7,13.6l0,0c-3.2,6.8-8.3,12.5-13.3,18c-4.9,5.3-9.1,11.7-14.2,16.8c-7.1,7.1-8-4.9-10.1-10
						C317,382.1,313,375.7,308.2,369.9z"/>
					<path class="st34" d="M344.9,355.8c0.2-0.3-0.3-0.5-0.4-0.2c-8,13-14,27.2-17.8,42c1.4-16.8,1.8-33.6,1.4-50.4l0,0
						c2.6-5.6,5.8-10.9,9.5-15.8c0.2-0.2-0.2-0.5-0.4-0.3c-3.5,4.7-6.6,9.7-9.1,15c-0.1-3.6-0.3-7.3-0.5-11
						c-0.4-6.8-0.9-13.5-1.6-20.3c0-0.1-0.1-0.2-0.2-0.2c0,0,0,0,0,0c-0.1,0-0.2,0.1-0.2,0.3c0,0,0,0,0,0l0,0
						c0.7,7,1.3,14.1,1.6,21.2l-6.5-8.3c-0.2-0.2-0.6,0-0.4,0.3l6.9,8.8h0.1c0.7,12.5,0.8,25,0.4,37.5c-4.5-8.1-9.7-15.8-15.6-22.9
						c-0.2-0.2-0.6,0-0.4,0.3c6.1,7.3,11.4,15.2,16,23.6c-0.1,3.8-0.3,7.5-0.5,11.3c-0.4,6.7-0.9,13.3-1.6,20c0,0.3,0.4,0.4,0.5,0.1
						c0.2-2.1,0.4-4.2,0.6-6.2c0,0,0.1-0.1,0.1-0.1C330.2,384.7,336.4,369.6,344.9,355.8z"/>
					<path class="st35" d="M382,303.4c0,2.3-1.9,4.2-4.2,4.2s-4.2-1.9-4.2-4.2c0-2.3,1.9-4.2,4.2-4.2C380.1,299.2,382,301,382,303.4
						z"/>
					<path class="st35" d="M244,360.4c0,2.3-1.9,4.2-4.2,4.2s-4.2-1.9-4.2-4.2c0-2.3,1.9-4.2,4.2-4.2C242.1,356.2,244,358,244,360.4
						z"/>
					<circle class="st1" cx="240.8" cy="336.3" r="3.5"/>
					<circle class="st1" cx="117.8" cy="308.3" r="3.5"/>
					<circle class="st1" cx="403.7" cy="292.5" r="2.3"/>
					<path class="st4" d="M268.2,312.1c0,1.9-1.5,3.4-3.4,3.4c-1.9,0-3.4-1.5-3.4-3.4s1.5-3.4,3.4-3.4l0,0
						C266.7,308.7,268.2,310.3,268.2,312.1z"/>
					<path class="st4" d="M203.2,360.1c0,1.9-1.5,3.4-3.4,3.4c-1.9,0-3.4-1.5-3.4-3.4s1.5-3.4,3.4-3.4l0,0
						C201.7,356.7,203.2,358.3,203.2,360.1z"/>
					<path class="st4" d="M386.2,360.1c0,1.9-1.5,3.4-3.4,3.4s-3.4-1.5-3.4-3.4c0-1.9,1.5-3.4,3.4-3.4l0,0
						C384.7,356.7,386.2,358.3,386.2,360.1z"/>
					<path class="st4" d="M292,322.7c0,1-0.8,1.8-1.8,1.8s-1.8-0.8-1.8-1.8s0.8-1.8,1.8-1.8c0,0,0,0,0,0
						C291.2,321,292,321.8,292,322.7z"/>
					<path class="st4" d="M386,321.7c0,1-0.8,1.8-1.8,1.8c-1,0-1.8-0.8-1.8-1.8s0.8-1.8,1.8-1.8S386,320.8,386,321.7L386,321.7z"/>
					<path class="st4" d="M224,342.7c0,1-0.8,1.8-1.8,1.8s-1.8-0.8-1.8-1.8s0.8-1.8,1.8-1.8c0,0,0,0,0,0l0,0
						C223.2,341,224,341.7,224,342.7C224,342.7,224,342.7,224,342.7L224,342.7z"/>
					<path class="st4" d="M151,343.7c0,1-0.8,1.8-1.8,1.8s-1.8-0.8-1.8-1.8s0.8-1.8,1.8-1.8c0,0,0,0,0,0l0,0
						C150.2,342,151,342.7,151,343.7C151,343.7,151,343.7,151,343.7L151,343.7z"/>
				</g>
			</g>
			
				<linearGradient id="SVGID_33_" gradientUnits="userSpaceOnUse" x1="327.8188" y1="1808.6407" x2="356.6588" y2="1858.5907" gradientTransform="matrix(1 0 0 1 -75 -1746.26)">
				<stop  offset="0" style="stop-color:#FDFDFE"/>
				<stop  offset="6.000000e-02" style="stop-color:#FDFDFE;stop-opacity:0.86"/>
				<stop  offset="0.16" style="stop-color:#FDFDFE;stop-opacity:0.66"/>
				<stop  offset="0.26" style="stop-color:#FDFDFE;stop-opacity:0.48"/>
				<stop  offset="0.37" style="stop-color:#FDFDFE;stop-opacity:0.33"/>
				<stop  offset="0.47" style="stop-color:#FDFDFE;stop-opacity:0.21"/>
				<stop  offset="0.59" style="stop-color:#FDFDFE;stop-opacity:0.12"/>
				<stop  offset="0.71" style="stop-color:#FDFDFE;stop-opacity:5.000000e-02"/>
				<stop  offset="0.84" style="stop-color:#FDFDFE;stop-opacity:1.000000e-02"/>
				<stop  offset="1" style="stop-color:#FDFDFE;stop-opacity:0"/>
			</linearGradient>
			<path class="st36" d="M258,119.9c0,0-22-47,26-52C284,80.9,256,92.9,258,119.9z"/>
			
				<linearGradient id="SVGID_34_" gradientUnits="userSpaceOnUse" x1="-1231.6725" y1="2111.9868" x2="-1199.3325" y2="2167.9968" gradientTransform="matrix(0.28 -1.32 0.98 0.21 -1468.98 -1821.3401)">
				<stop  offset="0.1" style="stop-color:#FDFDFE"/>
				<stop  offset="0.14" style="stop-color:#FDFDFE;stop-opacity:0.86"/>
				<stop  offset="0.21" style="stop-color:#FDFDFE;stop-opacity:0.66"/>
				<stop  offset="0.28" style="stop-color:#FDFDFE;stop-opacity:0.48"/>
				<stop  offset="0.35" style="stop-color:#FDFDFE;stop-opacity:0.33"/>
				<stop  offset="0.43" style="stop-color:#FDFDFE;stop-opacity:0.21"/>
				<stop  offset="0.5" style="stop-color:#FDFDFE;stop-opacity:0.12"/>
				<stop  offset="0.59" style="stop-color:#FDFDFE;stop-opacity:5.000000e-02"/>
				<stop  offset="0.68" style="stop-color:#FDFDFE;stop-opacity:1.000000e-02"/>
				<stop  offset="0.79" style="stop-color:#FDFDFE;stop-opacity:0"/>
			</linearGradient>
			<path class="st37" d="M303.6,246.3c0,0-33.8,12.5-28.2-29.3C283.7,218.9,286.2,244.4,303.6,246.3z"/>
			
				<linearGradient id="SVGID_35_" gradientUnits="userSpaceOnUse" x1="96.3438" y1="2101.011" x2="228.8212" y2="2101.011" gradientTransform="matrix(1 0 0 1 -75 -1746.26)">
				<stop  offset="0" style="stop-color:#255B51"/>
				<stop  offset="1" style="stop-color:#112B27"/>
			</linearGradient>
			<path class="st38" d="M144.3,379.3c5.5-1.3,9.6-6.3,9.5-11.5s-4.4-10.1-9.9-11.3s-11.7,1.5-14.2,6.2c3-6.4,1-14.2-4.8-18.3
				c-6-4-15.5-2.6-19.3,3.2c-4.8-12.4-20.2-20.5-34.1-17.8S46.9,345.6,48,358.8c1.5-2.9-1.3-6.2-4.4-7.5c-7.2-3.1-16.9-0.1-20.6,6.4
				s-0.9,15.6,6,19.3c4.7,2.5,10.4,2.6,15.8,2.7l44.9,0.4c18.7,0.2,37.4,0.4,56-1.5"/>
			<path class="st27" d="M47.2,349.7c4.8,10.7,13.9,17.1,16.9,19l-0.9-0.3c-2.9-1-5.7-1.8-8.6-2.6c-6.3-10-17.8-16.3-17.8-16.3
				c4.1,6.6,9.7,12,16.4,15.9c-2-0.5-4.1-1-6.1-1.5c-0.5-0.1-1-0.2-1.4-0.3c-6.8-8.5-17.2-13.3-17.2-13.3c4.3,5.5,9.8,10,16.1,13.1
				l-1.4-0.3l0,0c-2-0.4-4.1-0.8-6.1-1.1c-6.3-8-16-12.4-16-12.4c4.1,5.3,9.3,9.5,15.3,12.4c-1.8-0.3-3.5-0.5-5.2-0.7l-2.7-0.3
				c-3.6-3-7.8-5.3-12.3-6.7c3.4,3,7.3,5.3,11.6,6.7c-3.2-0.3-6.3-0.5-9.4-0.6c-4.8-1.1-9.9-1.1-14.7,0.1c0,0,8.4,2.3,16,0.3
				c2,0.1,4,0.2,6,0.4c-1.4,0.2-5.9,1.1-8.1,5.3c0,0,6.1-0.9,8.5-5.3c1.7,0.2,3.5,0.4,5.2,0.6l3.2,0.5c-1.9,0.3-7.6,1.5-10.5,7
				c0,0,7.9-1.2,11-6.9c2.2,0.3,4.4,0.7,6.6,1.1c-2.9,0.5-9,2.4-12.2,8.5c0,0,9.5-1.4,13.5-8.2c1.4,0.3,2.9,0.6,4.3,1
				c1.7,0.4,3.3,0.8,5,1.3c-2.5,0.1-11.8,1-17.6,8.5c0,0,12-0.8,18.1-8.3c3.5,0.9,6.9,2,10.4,3.1l0.2,0.1c-3.4,0-13.4,0.4-20.9,7.2
				c0,0,13.6,0.2,21.8-6.9l0.9,0.3l1,0.3l1,0.4l4,1.4c1.3,0.5,2.6,1,3.9,1.6l3.8,1.6l0.3-0.6l-3.9-1.6c-1.3-0.5-2.6-1.1-3.9-1.6
				l-4-1.5l-1-0.4l-1-0.3L65,369C59.6,357.5,47.2,349.7,47.2,349.7z"/>
			<path class="st27" d="M58.9,282.9c2.1,0,5.5,2.1,7.8,6.2s2.4,8.2,1.3,9.9c-2-0.3-5.1-2.7-7.3-6.5S58.1,284.8,58.9,282.9z"/>
			<path class="st27" d="M78.2,326.2c-2.3-9.5-5.5-18.8-9.8-27.6l-1,0.5c4.2,8.8,7.5,18,9.7,27.4L78.2,326.2z"/>
			<path class="st27" d="M79.9,294.3c-2,0.4-4.7,3.2-6.2,7.5c-0.7,1.9-1.1,3.9-1.1,5.9c-0.1,1.4,0.2,2.8,0.9,4c2-0.2,5-2.6,6.7-7
				S81.2,296.1,79.9,294.3z"/>
			<path class="st27" d="M56.8,305.1c1.6-1.2,5.4-1.8,9.5-0.1c1.9,0.7,3.5,1.8,4.9,3.3c1,1,1.7,2.2,2,3.6c-1.7,1.1-5.6,1.1-9.6-0.6
				S57.2,307,56.8,305.1z"/>
			<path class="st27" d="M61.7,317.2c1.8-1,5.6-1.2,9.5,0.9s6.2,5.4,6.1,7.5l0,0c-1.8,1-5.6,0.5-9.4-1.6S61.9,319.1,61.7,317.2z"/>
			<path class="st27" d="M85.8,308.8c-2.1,0.2-5,2.7-6.9,6.8s-2.3,8-1.3,9.9l0,0c2,0,5.3-2.1,7.4-6.2S86.9,310.8,85.8,308.8z"/>
			<path class="st27" d="M81.8,354.6c-0.2-9.8-1.5-19.6-3.8-29.1l-1.1,0.3c2.3,9.4,3.6,19.1,3.8,28.8L81.8,354.6z"/>
			<path class="st27" d="M90.1,323.8c-2.1,0-5.2,2.2-7.6,6.1s-3.1,7.7-2.3,9.7c2,0.2,5.5-1.5,8-5.4c1.2-1.8,1.9-3.8,2.2-5.9
				C90.8,326.8,90.6,325.2,90.1,323.8z"/>
			<path class="st27" d="M65.3,329.6c1.8-0.8,5.7-0.6,9.3,1.8s5.6,6,5.3,8.1c-1.9,0.8-5.7-0.1-9.2-2.6c-1.5-1.1-2.9-2.4-4-3.9
				C66,332.1,65.5,330.9,65.3,329.6z"/>
			<path class="st27" d="M67.6,342.4c1.9-0.6,5.7,0,9.1,2.8c1.5,1.3,2.8,2.8,3.7,4.6c0.7,1.2,0.9,2.7,0.8,4.1l0,0
				c-1.9,0.6-5.7-0.7-8.9-3.5S67.5,344.3,67.6,342.4z"/>
			<path class="st27" d="M92.9,339.2c-2.1-0.2-5.4,1.6-8.2,5.2c-1.3,1.6-2.2,3.4-2.9,5.3c-0.5,1.3-0.7,2.7-0.4,4.1l0,0
				c2,0.5,5.6-0.9,8.5-4.5S93.6,341.4,92.9,339.2z"/>
			<path class="st27" d="M79.5,383.2c1.8-9.6,2.6-19.4,2.3-29.2h-1.1c0.2,9.7-0.6,19.4-2.3,29L79.5,383.2z"/>
			<path class="st27" d="M94,354.8c-2-0.5-5.6,1-8.7,4.3s-4.6,6.9-4.3,9c1.9,0.6,5.7-0.3,9-3.6c1.5-1.5,2.7-3.3,3.4-5.3
				C94,357.8,94.2,356.3,94,354.8z"/>
			<path class="st27" d="M68.5,355.3c2-0.4,5.6,0.6,8.8,3.8s4.2,7.1,3.5,9.1c-2,0.4-5.5-1.3-8.4-4.5c-1.3-1.4-2.4-2.9-3.1-4.7
				C68.6,357.8,68.4,356.5,68.5,355.3z"/>
			<path class="st27" d="M68.1,368.3c2-0.2,5.6,1.2,8.3,4.7s3.4,7.5,2.6,9.4l0,0c-2,0.1-5.4-1.9-8-5.3c-1.1-1.5-2-3.2-2.6-5
				C67.9,370.8,67.8,369.5,68.1,368.3z"/>
			<path class="st27" d="M93.5,370.5c-2-0.7-5.6,0.5-9.1,3.4s-5.4,6.4-5.2,8.5l0,0c1.8,0.8,5.7,0.2,9.3-2.7c1.6-1.3,3-3,3.9-4.9
				C93.2,373.5,93.5,372,93.5,370.5z"/>
			<path class="st27" d="M115.8,324c3.8,5.5,6,11.9,6.4,18.5l0.1-0.7c0.4-2.3,0.9-4.5,1.5-6.7c-4.3-8-4.2-18-4.2-18
				c2.9,5.2,4.4,11.1,4.5,17c0.4-1.6,0.8-3.1,1.3-4.7l0.3-1.1c-3.2-7.8-2.5-16.5-2.5-16.5c2.1,4.9,3,10.2,2.8,15.6l0.3-1l0,0
				c0.5-1.5,1-3,1.5-4.5c-3-7.2-2.3-15.4-2.3-15.4c2,4.7,2.8,9.9,2.5,15c0.5-1.3,1-2.5,1.5-3.8l0.8-2c-0.6-3.6-0.6-7.2,0.1-10.8
				c0.7,3.4,0.8,6.9,0.1,10.3c1-2.3,2-4.5,3.2-6.5c1.1-3.7,3-7.1,5.6-9.9c0,0-1.7,6.5-5.8,10.9c-0.7,1.3-1.4,2.7-2,4.1
				c1.6-2.1,4-3.4,6.6-3.4c0,0-2.9,3.7-6.8,3.7c-0.5,1.2-1.1,2.5-1.6,3.7c-0.3,0.8-0.6,1.5-0.9,2.3c0.9-1.1,3.9-4.5,8.6-4.4
				c0,0-3.7,4.8-8.8,4.8c-0.6,1.6-1.1,3.2-1.7,4.8c1.5-1.7,5-5.1,10.3-5c0,0-4.5,5.8-10.6,6c-0.3,1.1-0.7,2.1-1,3.2
				c-0.4,1.3-0.7,2.6-1,3.9c1-1.6,5.2-7.5,12.3-8.6c0,0-5,7.8-12.4,9c-0.7,2.7-1.3,5.4-1.8,8.1v0.2c1.3-2.3,5.4-8.8,12.8-11.3
				c0,0-5,9.2-12.9,12l-0.1,0.7l-0.1,0.8l-0.1,0.8l-0.5,3.2c-0.2,1-0.3,2.1-0.4,3.2l-0.4,3.2h-0.5l0.4-3.2c0.1-1.1,0.2-2.1,0.4-3.2
				l0.5-3.2l0.1-0.8l0.1-0.8l0-0.2C116.4,335.3,115.8,324,115.8,324z"/>
			
				<image style="overflow:visible;opacity:0.35;enable-background:new    ;" width="64" height="72" xlink:href="B2D6F674.png"  transform="matrix(1 0 0 1 32 319.87)">
			</image>
			
				<linearGradient id="SVGID_36_" gradientUnits="userSpaceOnUse" x1="263.7705" y1="1896.1592" x2="311.2906" y2="1896.1592" gradientTransform="matrix(0.99 0.17 -0.17 0.99 99.38 -1578.3101)">
				<stop  offset="0" style="stop-color:#C7DC5E"/>
				<stop  offset="1" style="stop-color:#3A7B05"/>
			</linearGradient>
			<path class="st39" d="M40.7,326.6c2.7-0.3,5.3-0.4,8-0.4c1.5,0.2,2.5,1.5,2.4,3c0,0,0,0,0,0c0,0,0,0.1,0,0.1l-0.7,5.7
				c0,0.3,0.2,0.7,0.5,0.8l0,0c0.3,0.1,0.7-0.1,0.8-0.5c0,0,0-0.1,0-0.1l1.3-8.2c0,0,4.1,2,6.9,3.7c1.2,0.7,1.8,2.1,1.7,3.4
				l-0.9,11.1c0,0.3,0.2,0.6,0.5,0.7l0,0c0.3,0.1,0.6-0.1,0.7-0.4c0,0,0-0.1,0-0.1l1.3-12.3c0,0,3.4,2.6,5.5,4.3
				c1,0.8,1.4,2.1,1,3.3L66,352.6c-0.1,0.3,0,0.6,0.2,0.8l0,0c0.2,0.2,0.6,0.2,0.8,0c0,0,0,0,0,0c0.1-0.1,0.1-0.2,0.1-0.3l4.5-13
				c0,0,2.1,0.4,6.7,6.2c1.3,1.7,1.3,4,0,5.7l-4.8,5.9c-0.3,0.3-0.3,0.8,0,1.1l0,0c0.2,0.3,0.7,0.4,1,0.1c0,0,0,0,0,0l0.1-0.1
				l6.8-8.4c0,0,3,4.7,1.7,8.5s-1.1,8.6-4.9,9.2c-2.5,0.3-5.1,0.4-7.6,0.2L42,331.9L40.7,326.6z"/>
			
				<linearGradient id="SVGID_37_" gradientUnits="userSpaceOnUse" x1="263.3906" y1="1903.3541" x2="300.7505" y2="1903.3541" gradientTransform="matrix(0.99 0.17 -0.17 0.99 99.38 -1578.3101)">
				<stop  offset="0" style="stop-color:#C7DC5E"/>
				<stop  offset="1" style="stop-color:#3A7B05"/>
			</linearGradient>
			<path class="st40" d="M71,368.8l-30.4-42.2c-0.8,2.9-1.4,5.9-1.8,8.8c-0.3,1.8,0.7,3.6,2.3,4.4c2.1,1,5.1,2.3,6.4,2.8
				c0.4,0.1,0.6,0.5,0.6,0.9l0,0c0,0.5-0.3,0.9-0.8,0.9c0,0,0,0,0,0c-0.1,0-0.1,0-0.2,0c-2.4-0.6-8.3-2.2-8.8-3c0,0,1.1,5.6,2,8.9
				c0.3,1.3,1.3,2.4,2.7,2.7c2.8,0.6,8,1.7,10.9,1.6c0.3,0,0.6,0.2,0.6,0.5l0,0c0.1,0.3-0.1,0.7-0.4,0.8h-0.1
				c-2.3-0.1-9.1-0.3-11.6-1.2c0,0,1.6,4.4,2.7,7.3c0.4,1.1,1.3,1.8,2.5,2c3.9,0.5,7.8-0.1,11.3-1.8c0.4-0.2,0.9-0.1,1.1,0.3l0,0
				c0.3,0.5,0.2,1.1-0.3,1.4l-0.1,0.1c-2.5,1.2-9.4,4-13.2,1.8c0,0,6.3,14,13.3,13.7S68.8,381.2,71,368.8z"/>
			
				<image style="overflow:visible;opacity:0.35;enable-background:new    ;" width="74" height="92" xlink:href="D9119F69.png"  transform="matrix(1 0 0 1 62 308.87)">
			</image>
			
				<linearGradient id="SVGID_38_" gradientUnits="userSpaceOnUse" x1="160.1319" y1="2030.3811" x2="189.5919" y2="2059.4912" gradientTransform="matrix(1 -1.000000e-02 -1.000000e-02 1.06 -65.76 -1816.59)">
				<stop  offset="0" style="stop-color:#0E4F24"/>
				<stop  offset="0.24" style="stop-color:#20653F"/>
				<stop  offset="0.54" style="stop-color:#337C5B"/>
				<stop  offset="0.8" style="stop-color:#3F8A6C"/>
				<stop  offset="1" style="stop-color:#438F72"/>
			</linearGradient>
			<path class="st41" d="M102,315.6L102,315.6c-0.4,0.3-0.8,0.6-1.3,0.9c-1.6,1-3.3,1.8-5,2.6c-5.1,2.3-2,16.7-1.3,19.8
				c0.1,0.3,0,0.6-0.3,0.9c-0.2,0.2-0.5,0.2-0.7,0c0,0,0,0,0,0c0,0-0.1-0.1-0.1-0.1c-3.5-6.3-1.1-19.9-1.1-19.9
				c-0.7,0-3.3,1.8-5.4,3.3c-2.3,1.8-3.4,4.7-3,7.5c0.9,7.5,5,16.3,6,18.3c0.2,0.3,0.2,0.6,0.1,0.9c-0.1,0.3-0.3,0.5-0.5,0.4
				c-0.1,0-0.3-0.1-0.4-0.2c-6.5-7-6.9-23.8-6.9-23.8c-1.3,0.8-4.3,5.5-5.9,8.2c-0.8,1.4-1,3.1-0.6,4.7c1.8,5.8,7.8,14.4,9.6,16.7
				c0.3,0.4,0.6,0.6,0.4,1c-0.2,0.3-0.5,0.5-0.8,0.5c-0.1,0-0.2,0-0.3-0.1c-7.9-6-10.5-19.3-10.5-19.3c-1.1,1.4-3,8.3-3.8,11.9
				c-0.4,1.7-0.3,3.5,0.4,5.1c2.9,6.3,9.2,9.5,11.7,10.6c0.4,0.2,0.6,0.8,0.3,1.2c0,0,0,0,0,0l-0.1,0.1c-0.2,0.3-0.5,0.5-0.9,0.5
				c-8.1-0.9-12.5-11.5-12.5-11.5s-4.2,19,6,27.1s17.9-3.1,18.5-6.6c0-0.1,0-0.3,0.1-0.4c0-0.1,0-0.2,0-0.2l8.2-59.8L102,315.6z
				 M90.4,344.1c2-3.5,2.9,3.4,2.9,3.4C93,348.7,89.6,345.5,90.4,344.1L90.4,344.1z M85.7,350.8c0.4-0.8,1.6-0.6,2-0.3
				s1.8,1.7,1.4,2.5s-2.3,0.5-2.7,0.2C85.8,352.6,85.5,351.6,85.7,350.8L85.7,350.8z M84.8,362.3c0.3-0.9,2.6-0.3,3.4,0.1
				s2.5,1.9,2.2,2.7s-2.5,0.6-3.4,0.2S84.5,363.2,84.8,362.3L84.8,362.3z M86.3,377.1c-1.2,0.2-2.4-0.6-2.6-1.8c0,0,0-0.1,0-0.1
				c0-1.4,0.9-2.5,2.2-2.9c1-0.3,3.3-0.1,3.5,1.3S87.4,376.8,86.3,377.1L86.3,377.1z M93.7,358.7c-0.4,0.4-1.4-0.5-1.6-1.1
				s-0.5-2-0.1-2.4s1.3,0.7,1.6,1.2S94.2,358.3,93.7,358.7L93.7,358.7z M96.7,343.2c-0.1,0.5-0.6,1.4-0.9,1.3s-0.4-1.3-0.3-1.8
				s0.7-1.5,1.1-1.3S96.8,342.8,96.7,343.2L96.7,343.2z M97.9,336.1c-0.7,0.8-2.2-5.2-1-5.4C99,330.6,97.9,336.1,97.9,336.1z"/>
			
				<linearGradient id="SVGID_39_" gradientUnits="userSpaceOnUse" x1="628.5849" y1="1486.7681" x2="686.2149" y2="1518.3381" gradientTransform="matrix(0.78 0.46 -0.41 1.04 207.17 -1513.1699)">
				<stop  offset="0" style="stop-color:#0E4F24"/>
				<stop  offset="0.24" style="stop-color:#20653F"/>
				<stop  offset="0.54" style="stop-color:#337C5B"/>
				<stop  offset="0.8" style="stop-color:#3F8A6C"/>
				<stop  offset="1" style="stop-color:#438F72"/>
			</linearGradient>
			<path class="st42" d="M110.4,375c-0.5-0.1-0.8-0.5-0.8-1l0,0c-0.1-0.7,0.3-1.3,1-1.5c14.3-1.4,13-15.3,13-15.3
				c-3.7,5-13.7,7.3-16.2,7.8c-0.3,0.1-0.6-0.2-0.6-0.6c-0.1-0.4,0.2-0.7,0.5-0.9c7.8-1.3,16.2-9.8,16.2-9.8
				c0.9-6.6-2.6-15.9-2.6-15.9c-5.8,12.2-13.6,15.5-15.4,16.1c-0.2,0.1-0.5,0-0.6-0.3c-0.2-0.4,0-0.9,0.4-1l0,0
				c8.6-2.5,14.2-17.6,14.2-17.6c-0.3-3.4-6-9-6-9c-0.8,6.6-3.7,12.7-8.2,17.6c-0.2,0.2-0.5,0.2-0.6,0c-0.1-0.1-0.1-0.1-0.1-0.2
				c-0.1-0.3-0.1-0.7,0.2-0.9c5.7-5.5,7.1-17.8,7.1-17.8c-0.5-2-2.3-2.1-4.4-3.8c-1.9-1.6-3.7-3.3-5.4-5.2h0H102l-8.1,60l0,0
				c0,0.7-0.1,15.2,14.2,12.2c11.3-2.4,14-18.9,14-18.9C117.3,375.1,112.3,375.2,110.4,375z M105.8,346.8c0.4-0.2,1.3-0.3,1.4,0.1
				s-0.5,1.1-0.9,1.4s-1.3,0.5-1.4,0S105.4,347,105.8,346.8L105.8,346.8z M103.4,336.9c1.4,0.7-2.3,3.6-2.9,2.8
				C100.5,339.7,101,335.7,103.4,336.9L103.4,336.9z M98.6,351.8c0.8-1.4,1.9-2.8,2.5-0.4c0.2,0.7-0.7,1.5-1.5,2
				S98.1,352.6,98.6,351.8L98.6,351.8z M97.9,361.5c-0.1-0.6,0.9-1.3,1.4-1.5c0.4-0.2,0.9,0,1.1,0.4c0,0,0,0,0,0
				c0,0.1,0,0.1,0.1,0.2c0.1,0.6-0.3,1.2-0.8,1.5C99.2,362.3,98,362.1,97.9,361.5z M102.3,376.7c-0.5,1-1.7,1.4-2.7,0.9c0,0,0,0,0,0
				h-0.1c-0.8-0.5-2.3-2.6-1.8-3.7c0.5-1.1,2.5-0.7,3.3-0.2C102,374.3,102.5,375.5,102.3,376.7L102.3,376.7z M102.3,368.9
				c-0.7,0.4-2.5,0.6-2.8-0.3s1-2.4,1.7-2.8s2.5-0.9,2.8,0S103,368.5,102.3,368.9L102.3,368.9z M105.3,358.4c-0.3,0.1-1.3,0-1.4-0.5
				s0.9-1,1.1-1.1s1,0,1,0.5C106,357.8,105.8,358.2,105.3,358.4L105.3,358.4z"/>
			<circle class="st3" cx="49.5" cy="301.3" r="2.8"/>
			<path class="st4" d="M26.3,329c0,1.9-1.5,3.4-3.4,3.4s-3.4-1.5-3.4-3.4c0-1.9,1.5-3.4,3.4-3.4C24.8,325.6,26.3,327.1,26.3,329
				L26.3,329z"/>
		</g>
	</g>
</g>
</svg>
